<svg width="29" height="29" viewBox="0 0 29 29" fill="none" xmlns="http://www.w3.org/2000/svg">
<mask id="path-1-outside-1_146_446" maskUnits="userSpaceOnUse" x="0" y="8.39233e-05" width="29" height="29" fill="black">
<rect fill="white" y="8.39233e-05" width="29" height="29"/>
<path d="M27 14.5001C27 21.4036 21.4036 27.0001 14.5 27.0001C7.59644 27.0001 2 21.4036 2 14.5001C2 7.59652 7.59644 2.00008 14.5 2.00008C21.4036 2.00008 27 7.59652 27 14.5001ZM3.25 14.5001C3.25 20.7133 8.2868 25.7501 14.5 25.7501C20.7132 25.7501 25.75 20.7133 25.75 14.5001C25.75 8.28688 20.7132 3.25008 14.5 3.25008C8.2868 3.25008 3.25 8.28688 3.25 14.5001Z"/>
</mask>
<path d="M27 14.5001C27 21.4036 21.4036 27.0001 14.5 27.0001C7.59644 27.0001 2 21.4036 2 14.5001C2 7.59652 7.59644 2.00008 14.5 2.00008C21.4036 2.00008 27 7.59652 27 14.5001ZM3.25 14.5001C3.25 20.7133 8.2868 25.7501 14.5 25.7501C20.7132 25.7501 25.75 20.7133 25.75 14.5001C25.75 8.28688 20.7132 3.25008 14.5 3.25008C8.2868 3.25008 3.25 8.28688 3.25 14.5001Z" fill="#1ADB5C"/>
<path d="M27 14.5001C27 21.4036 21.4036 27.0001 14.5 27.0001C7.59644 27.0001 2 21.4036 2 14.5001C2 7.59652 7.59644 2.00008 14.5 2.00008C21.4036 2.00008 27 7.59652 27 14.5001ZM3.25 14.5001C3.25 20.7133 8.2868 25.7501 14.5 25.7501C20.7132 25.7501 25.75 20.7133 25.75 14.5001C25.75 8.28688 20.7132 3.25008 14.5 3.25008C8.2868 3.25008 3.25 8.28688 3.25 14.5001Z" stroke="#1E1E1E" stroke-width="4" mask="url(#path-1-outside-1_146_446)"/>
<path d="M20.5843 17.7865H19.2733V16.6215C19.2733 16.5574 19.2143 16.505 19.1422 16.505H18.3555C18.2834 16.505 18.2244 16.5574 18.2244 16.6215V17.7865H16.9134C16.8413 17.7865 16.7823 17.8389 16.7823 17.903V18.602C16.7823 18.6661 16.8413 18.7185 16.9134 18.7185H18.2244V19.8835C18.2244 19.9476 18.2834 20 18.3555 20H19.1422C19.2143 20 19.2733 19.9476 19.2733 19.8835V18.7185H20.5843C20.6564 18.7185 20.7154 18.6661 20.7154 18.602V17.903C20.7154 17.8389 20.6564 17.7865 20.5843 17.7865ZM12.0872 13.8021C12.0724 13.6754 12.0642 13.5473 12.0642 13.4177C12.0642 13.1861 12.0888 12.9604 12.1347 12.7405C12.1462 12.6881 12.115 12.6342 12.061 12.6123C11.8381 12.5235 11.6332 12.4012 11.4562 12.2468C11.2477 12.0671 11.0836 11.8508 10.9744 11.6116C10.8652 11.3724 10.8133 11.1156 10.822 10.8575C10.8368 10.3901 11.0482 9.94592 11.4169 9.61098C11.8217 9.24254 12.3658 9.04157 12.9443 9.0474C13.467 9.05177 13.9718 9.23089 14.3536 9.54836C14.4831 9.65612 14.5945 9.77553 14.6879 9.90369C14.7207 9.94883 14.7846 9.96776 14.8403 9.95029C15.1288 9.86145 15.4336 9.79883 15.7466 9.76971C15.8384 9.76097 15.8908 9.67359 15.8498 9.60078C15.3172 8.6644 14.2291 8.01782 12.9705 8.00034C11.1547 7.97559 9.64047 9.29933 9.64047 10.9129C9.64047 11.8274 10.1141 12.6429 10.8564 13.1774C10.3353 13.3915 9.85515 13.6871 9.4389 14.057C8.54084 14.8535 8.03282 15.905 8.00004 17.0278C7.9996 17.0433 8.00267 17.0588 8.00906 17.0732C8.01546 17.0877 8.02504 17.1009 8.03726 17.112C8.04948 17.1232 8.06408 17.132 8.0802 17.138C8.09633 17.1441 8.11365 17.1472 8.13114 17.1472H9.0505C9.12097 17.1472 9.17997 17.0977 9.18161 17.035C9.21274 16.1904 9.59786 15.3996 10.2747 14.7997C10.7565 14.3715 11.3464 14.0744 11.9905 13.9303C12.0528 13.9143 12.0954 13.8604 12.0872 13.8021ZM19.4699 13.4177C19.4699 11.8245 18.0294 10.5299 16.2431 10.5051C14.4274 10.4804 12.9148 11.8041 12.9148 13.4177C12.9148 14.3322 13.39 15.1477 14.1307 15.6822C13.6042 15.899 13.1249 16.1968 12.7148 16.5617C11.8168 17.3583 11.3088 18.4098 11.276 19.5311C11.2755 19.5466 11.2786 19.5621 11.285 19.5766C11.2914 19.591 11.301 19.6042 11.3132 19.6153C11.3254 19.6265 11.34 19.6353 11.3561 19.6414C11.3723 19.6474 11.3896 19.6505 11.4071 19.6505H12.3248C12.3953 19.6505 12.4543 19.601 12.4559 19.5384C12.487 18.6937 12.8722 17.903 13.549 17.303C14.2553 16.6753 15.1927 16.3302 16.1923 16.3302C18.0016 16.3302 19.4699 15.0268 19.4699 13.4177ZM17.6754 14.7356C17.2789 15.088 16.7528 15.2817 16.1923 15.2817C15.6319 15.2817 15.1058 15.088 14.7092 14.7356C14.5113 14.5606 14.355 14.3522 14.2494 14.1225C14.1438 13.8929 14.0912 13.6468 14.0947 13.3987C14.0996 12.9211 14.3143 12.4594 14.6896 12.1172C15.0829 11.759 15.6089 11.5595 16.171 11.5536C16.7266 11.5493 17.2657 11.7415 17.6623 12.0866C18.0688 12.4405 18.2916 12.9138 18.2916 13.4177C18.29 13.9157 18.072 14.3832 17.6754 14.7356Z" fill="white"/>
</svg>
