<svg width="30" height="30" viewBox="0 0 30 30" fill="none" xmlns="http://www.w3.org/2000/svg">
<path d="M22.5 25.65C22.5 22.8875 19.1425 20.65 15 20.65C10.8575 20.65 7.5 22.8875 7.5 25.65M15 16.9C13.6739 16.9 12.4021 16.3732 11.4645 15.4355C10.5268 14.4979 10 13.2261 10 11.9C10 10.5739 10.5268 9.30215 11.4645 8.36447C12.4021 7.42678 13.6739 6.9 15 6.9C16.3261 6.9 17.5979 7.42678 18.5355 8.36447C19.4732 9.30215 20 10.5739 20 11.9C20 13.2261 19.4732 14.4979 18.5355 15.4355C17.5979 16.3732 16.3261 16.9 15 16.9Z" stroke="black" stroke-width="2" stroke-linecap="round" stroke-linejoin="round"/>
</svg>
