<svg width="30" height="30" viewBox="0 0 30 30" fill="none" xmlns="http://www.w3.org/2000/svg">
<path d="M23.75 25H6.25C5.58696 25 4.95107 24.7366 4.48223 24.2678C4.01339 23.7989 3.75 23.163 3.75 22.5V11.25C3.75 10.587 4.01339 9.95107 4.48223 9.48223C4.95107 9.01339 5.58696 8.75 6.25 8.75H23.75C24.413 8.75 25.0489 9.01339 25.5178 9.48223C25.9866 9.95107 26.25 10.587 26.25 11.25V22.5C26.25 23.163 25.9866 23.7989 25.5178 24.2678C25.0489 24.7366 24.413 25 23.75 25Z" stroke="black" stroke-width="1.875"/>
<path d="M20.625 17.5C20.4592 17.5 20.3003 17.4342 20.1831 17.3169C20.0658 17.1997 20 17.0408 20 16.875C20 16.7092 20.0658 16.5503 20.1831 16.4331C20.3003 16.3158 20.4592 16.25 20.625 16.25C20.7908 16.25 20.9497 16.3158 21.0669 16.4331C21.1842 16.5503 21.25 16.7092 21.25 16.875C21.25 17.0408 21.1842 17.1997 21.0669 17.3169C20.9497 17.4342 20.7908 17.5 20.625 17.5Z" fill="black" stroke="black" stroke-width="1.875" stroke-linecap="round" stroke-linejoin="round"/>
<path d="M22.5 8.75V7.00375C22.4999 6.62063 22.4117 6.24266 22.2423 5.89902C22.0729 5.55539 21.8268 5.25529 21.523 5.02189C21.2192 4.7885 20.8658 4.62805 20.4901 4.55295C20.1144 4.47785 19.7265 4.4901 19.3562 4.58875L5.60625 8.255C5.07382 8.39689 4.60317 8.7107 4.26749 9.14766C3.9318 9.58462 3.74988 10.1202 3.75 10.6712V11.25" stroke="black" stroke-width="1.875"/>
</svg>
