<svg width="24" height="18" viewBox="0 0 24 18" fill="none" xmlns="http://www.w3.org/2000/svg">
<path d="M1 11.6667V13.5867C1 14.7813 1 15.3787 1.26168 15.8352C1.49184 16.2366 1.85909 16.5629 2.31079 16.7675C2.82334 17 3.49554 17 4.83754 17H22.6064M1 11.6667V1M1 11.6667L5.62497 8.24267L5.62977 8.23947C6.46642 7.61973 6.88534 7.30933 7.34028 7.18347C7.877 7.03433 8.4556 7.05736 8.97516 7.24853C9.41569 7.41173 9.80101 7.75413 10.574 8.44107L10.5812 8.44747C11.3663 9.14507 11.7588 9.49493 12.2065 9.656C12.7364 9.84789 13.326 9.86529 13.869 9.70507C14.3287 9.56853 14.7489 9.24213 15.5891 8.58933L22.6064 3.13333" stroke="white" stroke-width="2" stroke-linecap="round" stroke-linejoin="round"/>
</svg>
